<?xml version="1.0" encoding="utf-8"?>
<!-- Generator: Adobe Illustrator 16.0.0, SVG Export Plug-In . SVG Version: 6.00 Build 0)  -->
<!DOCTYPE svg PUBLIC "-//W3C//DTD SVG 1.1//EN" "http://www.w3.org/Graphics/SVG/1.1/DTD/svg11.dtd">
<svg version="1.1" id="Layer_1" xmlns="http://www.w3.org/2000/svg" xmlns:xlink="http://www.w3.org/1999/xlink" x="0px" y="0px"
	 width="435.333px" height="164px" viewBox="0 0 435.333 164" enable-background="new 0 0 435.333 164" xml:space="preserve">
<g>
	<g>
		<g>
			<path fill="#EDEDF7" stroke="#282763" stroke-width="5.8796" stroke-linecap="round" stroke-miterlimit="10" d="M21.935,44.31
				c0,0-27.514,46.914-10.683,80.904c16.176,32.681,60.714,36.172,84.912,23.48s32.468-28.828,34.596-47.91
				c3.051-27.368-20.627-58.229-36-64.046"/>
			<path fill="#F6E0D4" stroke="#282763" stroke-width="5.8796" stroke-linecap="round" stroke-miterlimit="10" d="M26.178,78.575
				c0,0-5.226,16.583-2.145,25.319"/>
			
				<path fill="#282763" stroke="#282763" stroke-width="5.2149" stroke-linecap="round" stroke-linejoin="round" stroke-miterlimit="10" d="
				M33.809,147.916c0-32.537,35.798-28.083,35.798-28.083s11.526,3.944,13.178,14.445l3.667,18.324c0,0-17.126,4.864-29.219,2.416
				C45.141,152.566,33.809,147.916,33.809,147.916z"/>
			<path fill="#F6E0D4" stroke="#282763" stroke-width="5.8796" stroke-linecap="round" stroke-miterlimit="10" d="M76.447,118.678
				c-2.396,15.078-16.56,25.356-31.634,22.964c-15.078-2.396-25.36-16.56-22.964-31.634c2.396-15.081,16.56-25.36,31.638-22.964
				C68.564,89.437,78.843,103.601,76.447,118.678z"/>
			<path fill="none" stroke="#282763" stroke-width="3.4093" stroke-linecap="round" stroke-miterlimit="10" d="M48.119,129.182
				c0,0,7.77,4.184,11.821-3.65"/>
			<path fill="none" stroke="#282763" stroke-width="3.4093" stroke-linecap="round" stroke-miterlimit="10" d="M39.759,120.512
				c0,0,2.502,2.984,6.003,1.8c3.551-1.204,3.538-4.03,3.538-4.03"/>
			<path fill="none" stroke="#282763" stroke-width="3.4093" stroke-linecap="round" stroke-miterlimit="10" d="M54.632,115.455
				c0,0,2.495,2.981,5.997,1.8c3.554-1.201,3.538-4.03,3.538-4.03"/>
			
				<path fill="#282763" stroke="#282763" stroke-width="5.2149" stroke-linecap="round" stroke-linejoin="round" stroke-miterlimit="10" d="
				M41.963,87.345c-8.697,0.814-10.669,16.315,4.574,17.05c7.313,0.352,17.844-3.27,17.288-18.182c0,0-5.818,4.124-11.431,2.985
				C47.474,88.199,48.109,86.772,41.963,87.345z"/>
			<g>
				<path fill="#F6E0D4" stroke="#282763" stroke-width="5.8796" stroke-linecap="round" stroke-miterlimit="10" d="M69.663,155.074
					c-10.173-3.997-10.081-14.31,2.389-17.566c2.932-0.761,5.745-1.585,8.485-2.902"/>
				<path fill="#F6E0D4" stroke="#282763" stroke-width="5.8796" stroke-linecap="round" stroke-miterlimit="10" d="M76.646,154.3
					c-2.284,0.364-4.613,0.622-6.983,0.774"/>
				<path fill="#EDEDF7" stroke="#282763" stroke-width="5.8796" stroke-linecap="round" stroke-miterlimit="10" d="M89.95,86.958
					c0,0,13.211,18.452,4.566,33.514c-4.537,7.909-9.134,11.802-13.979,14.134c-2.74,1.317-5.553,2.142-8.485,2.902
					c-12.47,3.257-12.562,13.569-2.389,17.566c2.558,0.943,4.699,0.831,6.983,0.467c6.801-1.082,13.135-4.335,18.476-7.139
					c24.201-12.691,32.468-28.827,34.596-47.909c3.051-27.368-20.627-58.226-35.996-64.046"/>
			</g>
			
				<circle fill="#F6E0D4" stroke="#282763" stroke-width="4.4419" stroke-linecap="round" stroke-miterlimit="10" cx="58.747" cy="44.308" r="36.805"/>
			<path fill="#282763" d="M95.542,43.499c-0.007-0.274-0.017-0.546-0.03-0.821C95.394,40.054,95,37.4,94.292,34.759
				C89.016,15.128,68.829,3.492,49.198,8.764c-1.489,0.4-2.922,0.896-4.312,1.463l-0.543-2.287l-2.485,1.191
				c-16.924,8.105-25.674,27.157-20.799,45.303c1.102,4.109,3.611,8.941,5.424,11.83l0.86,1.371l1.572-0.4
				c2.929-0.748,7.886-2.89,14.846-8.844c7.145-6.105,10.326-15.566,11.643-21.104c3.61,3.307,7.622,5.705,11.967,7.158
				C81.58,49.188,93,46.554,96.165,45.63L95.542,43.499z"/>
			<path fill="none" stroke="#282763" stroke-width="3.1728" stroke-linecap="round" stroke-miterlimit="10" d="M61.482,70.798
				c0,0,7.916,3.833,11.612-4.144"/>
			<path fill="none" stroke="#282763" stroke-width="3.1728" stroke-linecap="round" stroke-miterlimit="10" d="M49.324,64.192
				c0,0,3.223,3.528,7.456,1.89c4.292-1.661,4.123-5.129,4.123-5.129"/>
			<path fill="none" stroke="#282763" stroke-width="3.1728" stroke-linecap="round" stroke-miterlimit="10" d="M67.29,57.199
				c0,0,3.227,3.528,7.456,1.891c4.295-1.665,4.124-5.13,4.124-5.13"/>
		</g>
	</g>
	<g>
		<path fill="#282763" d="M202.702,80.05c-0.342,0.343-0.723,0.513-1.144,0.513h-10.331c-0.737,0-1.315-0.092-1.735-0.276
			c-0.421-0.184-0.895-0.513-1.42-0.985c-0.106-0.105-0.447-0.46-1.025-1.064c-0.579-0.604-1.486-1.144-2.721-1.617
			c-1.236-0.473-2.669-0.71-4.298-0.71c-2.261,0-4.115,0.304-5.56,0.907c-1.446,0.605-2.168,1.644-2.168,3.115
			c0,1.052,0.446,1.88,1.34,2.484c0.894,0.604,2.273,1.143,4.141,1.616c1.865,0.474,5.112,1.183,9.739,2.129
			c5.94,1.21,10.304,3.104,13.091,5.679c2.786,2.576,4.18,6.257,4.18,11.04c0,3.47-1.039,6.506-3.115,9.108
			c-2.078,2.603-4.968,4.602-8.675,5.994c-3.707,1.392-7.9,2.09-12.579,2.09c-4.522,0-8.623-0.789-12.302-2.366
			c-3.681-1.577-6.573-3.628-8.675-6.151c-2.104-2.523-3.208-5.126-3.312-7.808c0-0.473,0.17-0.879,0.513-1.222
			c0.341-0.342,0.722-0.513,1.143-0.513h10.331c1.156,0,2.155,0.368,2.997,1.104c0.158,0.158,0.578,0.619,1.262,1.381
			c0.683,0.763,1.722,1.446,3.115,2.05c1.393,0.605,3.036,0.907,4.929,0.907c6.519,0,9.779-1.393,9.779-4.18
			c0-0.894-0.461-1.643-1.38-2.248c-0.92-0.604-2.222-1.116-3.904-1.537c-1.683-0.421-4.364-1.025-8.044-1.814l-3.549-0.709
			c-5.362-1.156-9.305-3.088-11.829-5.797c-2.523-2.707-3.785-6.321-3.785-10.843c0-3.049,0.919-5.876,2.76-8.479
			c1.839-2.602,4.456-4.678,7.847-6.229c3.391-1.55,7.294-2.326,11.711-2.326c4.258,0,8.148,0.802,11.671,2.405
			c3.521,1.604,6.295,3.615,8.32,6.032c2.023,2.419,3.088,4.785,3.194,7.098C203.215,79.301,203.043,79.708,202.702,80.05z"/>
		<path fill="#282763" d="M225.296,118.652c-0.421,0.421-0.92,0.631-1.499,0.631h-9.937c-0.579,0-1.078-0.21-1.498-0.631
			c-0.422-0.42-0.631-0.919-0.631-1.498v-36.75c0-0.577,0.209-1.076,0.631-1.498c0.42-0.42,0.919-0.631,1.498-0.631h9.937
			c0.578,0,1.077,0.211,1.499,0.631c0.42,0.422,0.631,0.921,0.631,1.498v36.75C225.927,117.733,225.716,118.232,225.296,118.652z"/>
		<path fill="#282763" d="M257.312,107.06h6.309c0.578,0,1.077,0.211,1.499,0.631c0.42,0.422,0.631,0.921,0.631,1.498v7.966
			c0,0.579-0.21,1.078-0.631,1.498c-0.421,0.421-0.92,0.631-1.499,0.631h-7.492c-4.995,0-8.978-1.393-11.947-4.18
			c-2.971-2.786-4.456-6.571-4.456-11.356V90.499h-5.835c-0.579,0-1.078-0.21-1.499-0.631c-0.421-0.42-0.631-0.92-0.631-1.499
			v-7.965c0-0.577,0.209-1.076,0.631-1.498c0.42-0.42,0.919-0.631,1.499-0.631h5.835V65.421c0-0.578,0.209-1.077,0.631-1.498
			c0.42-0.421,0.919-0.631,1.499-0.631h9.937c0.578,0,1.077,0.21,1.499,0.631c0.42,0.421,0.631,0.92,0.631,1.498v12.854h8.911
			c0.578,0,1.077,0.211,1.499,0.631c0.42,0.422,0.631,0.921,0.631,1.498v7.965c0,0.579-0.211,1.079-0.631,1.499
			c-0.421,0.421-0.92,0.631-1.499,0.631h-8.911v12.775C253.921,105.798,255.051,107.06,257.312,107.06z"/>
		<path fill="#282763" d="M294.693,107.06h6.309c0.578,0,1.077,0.211,1.499,0.631c0.42,0.422,0.631,0.921,0.631,1.498v7.966
			c0,0.579-0.21,1.078-0.631,1.498c-0.421,0.421-0.92,0.631-1.499,0.631h-7.492c-4.995,0-8.978-1.393-11.947-4.18
			c-2.971-2.786-4.456-6.571-4.456-11.356V90.499h-5.835c-0.579,0-1.078-0.21-1.499-0.631c-0.421-0.42-0.631-0.92-0.631-1.499
			v-7.965c0-0.577,0.209-1.076,0.631-1.498c0.42-0.42,0.919-0.631,1.499-0.631h5.835V65.421c0-0.578,0.209-1.077,0.631-1.498
			c0.42-0.421,0.919-0.631,1.499-0.631h9.937c0.578,0,1.077,0.21,1.499,0.631c0.42,0.421,0.631,0.92,0.631,1.498v12.854h8.911
			c0.578,0,1.077,0.211,1.499,0.631c0.42,0.422,0.631,0.921,0.631,1.498v7.965c0,0.579-0.211,1.079-0.631,1.499
			c-0.421,0.421-0.92,0.631-1.499,0.631h-8.911v12.775C291.302,105.798,292.432,107.06,294.693,107.06z"/>
		<path fill="#282763" d="M324.266,108.006c1.42,0.946,3.076,1.42,4.968,1.42c1.472,0,2.682-0.158,3.628-0.474
			s1.761-0.762,2.445-1.341c0.578-0.473,0.998-0.774,1.262-0.906c0.262-0.131,0.709-0.197,1.34-0.197h10.252
			c0.525,0,0.946,0.157,1.262,0.473s0.473,0.737,0.473,1.262c0,1.053-0.789,2.537-2.366,4.456c-1.577,1.92-3.917,3.628-7.019,5.126
			c-3.103,1.498-6.861,2.248-11.277,2.248c-6.782,0-12.026-1.88-15.732-5.639c-3.707-3.759-5.56-8.977-5.56-15.654
			c0-4.152,0.828-7.833,2.484-11.041c1.656-3.206,4.087-5.717,7.294-7.531c3.207-1.813,7.044-2.721,11.514-2.721
			c4.89,0,8.924,1.039,12.105,3.115c3.18,2.078,5.507,4.759,6.979,8.044c1.471,3.286,2.208,6.717,2.208,10.291v2.209
			c0,0.579-0.211,1.078-0.631,1.498c-0.421,0.421-0.92,0.631-1.498,0.631h-26.261C322.137,105.482,322.846,107.06,324.266,108.006z
			 M336.332,94.521c-0.21-1.786-0.934-3.299-2.168-4.534c-1.236-1.234-2.878-1.854-4.929-1.854c-2.05,0-3.694,0.619-4.929,1.854
			c-1.236,1.235-1.959,2.748-2.168,4.534H336.332z"/>
		<path fill="#282763" d="M387.827,78.906c0.42,0.422,0.631,0.921,0.631,1.498v7.965c0,0.579-0.211,1.079-0.631,1.499
			c-0.421,0.421-0.92,0.631-1.498,0.631h-7.176c-2.366,0-4.167,0.618-5.402,1.854c-1.236,1.235-1.853,3.036-1.853,5.401v19.4
			c0,0.579-0.211,1.078-0.631,1.498c-0.421,0.421-0.92,0.631-1.499,0.631h-9.937c-0.579,0-1.078-0.21-1.498-0.631
			c-0.422-0.42-0.631-0.919-0.631-1.498v-36.75c0-0.577,0.209-1.076,0.631-1.498c0.42-0.42,0.919-0.631,1.498-0.631h9.148
			c0.578,0,1.077,0.211,1.499,0.631c0.42,0.422,0.631,0.921,0.631,1.498v1.814c2.733-2.629,6.23-3.943,10.488-3.943h4.732
			C386.907,78.275,387.406,78.486,387.827,78.906z"/>
		<path fill="#282763" d="M395.713,98.818c-2.156-2.233-3.233-5.112-3.233-8.635c0-2.366,0.775-4.508,2.327-6.428
			c1.55-1.918,3.732-3.442,6.545-4.573c2.812-1.13,6.006-1.696,9.582-1.696c3.522,0,6.716,0.54,9.582,1.617
			c2.865,1.078,5.139,2.458,6.822,4.14c1.682,1.684,2.603,3.444,2.76,5.284c0.052,0.579-0.146,1.078-0.592,1.498
			c-0.447,0.422-0.96,0.631-1.538,0.631h-9.385c-0.579,0-1.262-0.288-2.05-0.867c-0.684-0.524-1.419-0.933-2.208-1.223
			c-0.789-0.288-1.92-0.434-3.391-0.434c-1.262,0-2.287,0.185-3.076,0.552c-0.789,0.369-1.183,0.921-1.183,1.656
			c0,0.631,0.144,1.104,0.434,1.42c0.289,0.315,0.814,0.552,1.577,0.71c0.762,0.157,2.09,0.368,3.982,0.631l4.89,0.788
			c4.574,0.737,8.004,2.301,10.292,4.692c2.287,2.393,3.43,5.244,3.43,8.557c0,2.366-0.802,4.534-2.405,6.506
			c-1.604,1.972-3.917,3.536-6.939,4.692c-3.024,1.156-6.585,1.735-10.686,1.735c-3.943,0-7.374-0.566-10.292-1.696
			c-2.917-1.13-5.153-2.562-6.703-4.298c-1.551-1.734-2.405-3.495-2.563-5.283c-0.053-0.578,0.144-1.077,0.592-1.499
			c0.446-0.42,0.958-0.631,1.538-0.631h9.779c0.367,0,0.67,0.067,0.907,0.197c0.237,0.132,0.513,0.355,0.828,0.671
			c0.631,0.579,1.341,1.038,2.129,1.38c0.789,0.343,2.05,0.513,3.785,0.513c1.629,0,3.009-0.224,4.14-0.671
			c1.13-0.445,1.696-1.037,1.696-1.774c0-0.84-0.408-1.405-1.223-1.695c-0.815-0.288-2.563-0.643-5.244-1.064l-5.678-0.946
			C400.944,102.539,397.869,101.054,395.713,98.818z"/>
	</g>
	<path fill="#282763" d="M226.794,63.291c0,4.405-3.567,7.967-7.969,7.967c-4.395,0-7.962-3.562-7.962-7.967
		c0-4.4,3.567-7.965,7.962-7.965C223.227,55.326,226.794,58.891,226.794,63.291z"/>
</g>
</svg>
