<?xml version="1.0" encoding="utf-8"?>
<!-- Generator: Adobe Illustrator 16.0.0, SVG Export Plug-In . SVG Version: 6.00 Build 0)  -->
<!DOCTYPE svg PUBLIC "-//W3C//DTD SVG 1.1//EN" "http://www.w3.org/Graphics/SVG/1.1/DTD/svg11.dtd">
<svg version="1.1" id="Layer_1" xmlns="http://www.w3.org/2000/svg" xmlns:xlink="http://www.w3.org/1999/xlink" x="0px" y="0px"
	 width="192px" height="210.461px" viewBox="0 0 192 210.461" enable-background="new 0 0 192 210.461" xml:space="preserve">
<g>
	<path fill="#EDEDF7" d="M52.695,16.17c-1.494,0.023-2.686,1.253-2.662,2.746l0,0v8.07H25.667c-1.494,0-2.704,1.211-2.704,2.703
		v24.336h5.407V32.395h21.663v5.903c-3.131,1.128-5.407,4.117-5.407,7.615c0,4.448,3.663,8.112,8.111,8.112s8.111-3.664,8.111-8.112
		c0-3.498-2.276-6.487-5.407-7.615v-5.903h81.117v5.903c-3.131,1.128-5.407,4.117-5.407,7.615c0,4.448,3.663,8.112,8.111,8.112
		s8.112-3.664,8.112-8.112c0-3.498-2.277-6.487-5.408-7.615v-5.903h21.663v21.631h5.407V29.689c0-1.492-1.21-2.703-2.703-2.703
		h-24.367v-8.07c0.023-1.492-1.169-2.723-2.662-2.746c-0.027,0-0.056,0-0.084,0c-1.494,0.023-2.686,1.253-2.662,2.746l0,0v8.07
		H55.441v-8.07c0.023-1.492-1.169-2.723-2.662-2.746C52.752,16.17,52.724,16.17,52.695,16.17z M52.441,43.262
		c0.193,0.021,0.388,0.021,0.581,0c1.377,0.146,2.419,1.229,2.419,2.651c0,1.526-1.179,2.704-2.704,2.704s-2.704-1.178-2.704-2.704
		C50.033,44.494,51.07,43.41,52.441,43.262z M138.967,43.262c0.193,0.021,0.388,0.021,0.581,0c1.377,0.146,2.419,1.229,2.419,2.651
		c0,1.526-1.179,2.704-2.704,2.704s-2.704-1.178-2.704-2.704C136.559,44.494,137.596,43.41,138.967,43.262z M25.698,59.433
		c-1.493,0.001-2.704,1.211-2.704,2.704v97.341c0,1.493,1.211,2.704,2.704,2.704h140.604c1.493,0,2.704-1.211,2.704-2.704V62.137
		c0-1.493-1.211-2.703-2.704-2.704H25.698z M28.402,64.841h135.195v91.933H28.402V64.841z M79.776,70.248
		c-1.493,0.001-2.704,1.211-2.704,2.705v10.815c0,1.493,1.211,2.704,2.704,2.704h10.815c1.493,0,2.704-1.211,2.704-2.704V72.953
		c0-1.494-1.211-2.704-2.704-2.705H79.776z M101.407,70.248c-1.492,0.001-2.703,1.211-2.703,2.705v10.815
		c0,1.493,1.211,2.704,2.703,2.704h10.816c1.493,0,2.704-1.211,2.704-2.704V72.953c0-1.494-1.211-2.704-2.704-2.705H101.407z
		 M123.039,70.248c-1.493,0.001-2.703,1.211-2.704,2.705v10.815c0.001,1.493,1.211,2.704,2.704,2.704h10.815
		c1.493,0,2.704-1.211,2.704-2.704V72.953c0-1.494-1.211-2.704-2.704-2.705H123.039z M144.67,70.248
		c-1.492,0.001-2.703,1.211-2.703,2.705v10.815c0,1.493,1.211,2.704,2.703,2.704h10.816c1.493,0,2.704-1.211,2.704-2.704V72.953
		c0-1.494-1.211-2.704-2.704-2.705H144.67z M68.887,73.945c-0.7,0.018-1.366,0.305-1.859,0.803l-5.27,5.218l-1.69-1.669
		c-1.041-1.07-2.753-1.095-3.824-0.054c-1.07,1.042-1.095,2.753-0.054,3.824c0.024,0.025,0.05,0.05,0.075,0.074l3.592,3.549
		c1.053,1.042,2.749,1.042,3.802,0l7.172-7.098c1.073-1.038,1.103-2.75,0.064-3.823C70.369,74.227,69.642,73.928,68.887,73.945z
		 M39.218,75.656v5.408h5.408v-5.408H39.218z M82.48,75.656h5.408v5.408H82.48V75.656z M104.111,75.656h5.408v5.408h-5.408V75.656z
		 M125.743,75.656h5.408v5.408h-5.408V75.656z M147.375,75.656h5.407v5.408h-5.407V75.656z M36.514,91.88
		c-1.493,0.001-2.704,1.211-2.704,2.704v10.815c0,1.493,1.211,2.704,2.704,2.704h10.815c1.493,0,2.704-1.211,2.704-2.704V94.584
		c0-1.493-1.211-2.703-2.704-2.704H36.514z M58.145,91.88c-1.492,0.001-2.703,1.211-2.703,2.704v10.815
		c0,1.493,1.211,2.704,2.703,2.704h10.816c1.493,0,2.704-1.211,2.704-2.704V94.584c0-1.493-1.211-2.703-2.704-2.704H58.145z
		 M79.776,91.88c-1.493,0.001-2.704,1.211-2.704,2.704v10.815c0,1.493,1.211,2.704,2.704,2.704h10.815
		c1.493,0,2.704-1.211,2.704-2.704V94.584c0-1.493-1.211-2.703-2.704-2.704H79.776z M101.407,91.88
		c-1.492,0.001-2.703,1.211-2.703,2.704v10.815c0,1.493,1.211,2.704,2.703,2.704h10.816c1.493,0,2.704-1.211,2.704-2.704V94.584
		c0-1.493-1.211-2.703-2.704-2.704H101.407z M144.67,91.88c-1.492,0.001-2.703,1.211-2.703,2.704v10.815
		c0,1.493,1.211,2.704,2.703,2.704h10.816c1.493,0,2.704-1.211,2.704-2.704V94.584c0-1.493-1.211-2.703-2.704-2.704H144.67z
		 M133.791,95.576c-0.7,0.018-1.366,0.305-1.858,0.803l-5.281,5.219l-1.689-1.67c-1.041-1.07-2.754-1.094-3.824-0.053
		c-1.071,1.041-1.095,2.753-0.054,3.823c0.024,0.026,0.05,0.051,0.075,0.075l3.591,3.549c1.054,1.041,2.749,1.041,3.803,0
		l7.183-7.098c1.073-1.039,1.102-2.75,0.063-3.824C135.274,95.857,134.546,95.559,133.791,95.576z M39.218,97.287h5.408v5.408
		h-5.408V97.287z M60.849,97.287h5.408v5.408h-5.408V97.287z M82.48,97.287h5.408v5.408H82.48V97.287z M104.111,97.287h5.408v5.408
		h-5.408V97.287z M147.375,97.287h5.407v5.408h-5.407V97.287z M36.514,113.512c-1.493,0-2.704,1.211-2.704,2.703v10.816
		c0,1.492,1.211,2.703,2.704,2.703h10.815c1.493,0,2.704-1.211,2.704-2.703v-10.816c0-1.492-1.211-2.703-2.704-2.703H36.514z
		 M58.145,113.512c-1.492,0-2.703,1.211-2.703,2.703v10.816c0,1.492,1.211,2.703,2.703,2.703h10.816
		c1.493,0,2.704-1.211,2.704-2.703v-10.816c0-1.492-1.211-2.703-2.704-2.703H58.145z M101.407,113.512
		c-1.492,0-2.703,1.211-2.703,2.703v10.816c0,1.492,1.211,2.703,2.703,2.703h10.816c1.493,0,2.704-1.211,2.704-2.703v-10.816
		c0-1.492-1.211-2.703-2.704-2.703H101.407z M123.039,113.512c-1.493,0-2.703,1.211-2.704,2.703v10.816
		c0.001,1.492,1.211,2.703,2.704,2.703h10.815c1.493,0,2.704-1.211,2.704-2.703v-10.816c0-1.492-1.211-2.703-2.704-2.703H123.039z
		 M144.67,113.512c-1.492,0-2.703,1.211-2.703,2.703v10.816c0,1.492,1.211,2.703,2.703,2.703h10.816
		c1.493,0,2.704-1.211,2.704-2.703v-10.816c0-1.492-1.211-2.703-2.704-2.703H144.67z M90.528,117.197
		c-0.703,0.014-1.374,0.303-1.869,0.803l-5.271,5.229l-1.689-1.669c-1.041-1.071-2.754-1.095-3.824-0.054
		c-1.071,1.041-1.095,2.753-0.054,3.824c0.024,0.025,0.05,0.051,0.075,0.074l3.591,3.549c1.054,1.042,2.749,1.042,3.803,0
		l7.172-7.108c1.073-1.038,1.102-2.75,0.063-3.823C92.003,117.481,91.28,117.183,90.528,117.197z M39.218,118.92h5.408v5.407h-5.408
		V118.92z M60.849,118.92h5.408v5.407h-5.408V118.92z M104.111,118.92h5.408v5.407h-5.408V118.92z M125.743,118.92h5.408v5.407
		h-5.408V118.92z M147.375,118.92h5.407v5.407h-5.407V118.92z M36.514,135.143c-1.493,0-2.704,1.211-2.704,2.704v10.815
		c0,1.493,1.211,2.704,2.704,2.704h10.815c1.493,0,2.704-1.211,2.704-2.704v-10.815c0-1.493-1.211-2.704-2.704-2.704H36.514z
		 M58.145,135.143c-1.492,0-2.703,1.211-2.703,2.704v10.815c0,1.493,1.211,2.704,2.703,2.704h10.816
		c1.493,0,2.704-1.211,2.704-2.704v-10.815c0-1.493-1.211-2.704-2.704-2.704H58.145z M39.218,140.551h5.408v5.408h-5.408V140.551z
		 M60.849,140.551h5.408v5.408h-5.408V140.551z M82.48,140.551v5.408h5.408v-5.408H82.48z M104.111,140.551v5.408h5.408v-5.408
		H104.111z M125.743,140.551v5.408h5.408v-5.408H125.743z M147.375,140.551v5.408h5.407v-5.408H147.375z"/>
</g>
</svg>
