<?xml version="1.0" encoding="utf-8"?>
<!-- Generator: Adobe Illustrator 16.0.0, SVG Export Plug-In . SVG Version: 6.00 Build 0)  -->
<!DOCTYPE svg PUBLIC "-//W3C//DTD SVG 1.1//EN" "http://www.w3.org/Graphics/SVG/1.1/DTD/svg11.dtd">
<svg version="1.1" id="Layer_1" xmlns="http://www.w3.org/2000/svg" xmlns:xlink="http://www.w3.org/1999/xlink" x="0px" y="0px"
	 width="192px" height="210.461px" viewBox="0 0 192 210.461" enable-background="new 0 0 192 210.461" xml:space="preserve">
<path fill="#EDEDF7" d="M172.574,79.345c-1.979,1.98-4.499,3.78-7.197,5.218c0.9,2.88,1.259,5.939,1.259,9.178
	c0,18.353-14.935,33.288-33.108,33.288c-18.174,0-33.108-14.934-33.108-33.288c0-3.238,0.54-6.478,1.439-9.536l0,0l0,0
	c0-0.182,0.18-0.361,0.18-0.541v-0.18c4.318-13.314,16.734-23.032,31.489-23.032c0.359,0,0.72,0,0.899,0c0.36,0,0.72,0,1.079,0
	c0.36,0,0.721,0,0.9,0.183c6.297,0.537,12.056,2.877,16.914,6.477c0.36,0.18,0.54,0.359,0.72,0.54
	c3.599,2.879,6.478,6.477,8.637,10.436c1.799-1.079,3.599-2.339,4.858-3.599c1.26-1.26,3.599-1.26,4.858,0
	C174.013,75.747,174.013,77.906,172.574,79.345z M109.956,82.045c2.52,0.359,5.938,0.9,10.077,1.26
	c0.18-3.599,0.899-9.178,2.879-13.855C117.333,71.967,112.655,76.466,109.956,82.045z M134.967,67.29
	c-1.439,0.18-2.519,0.719-3.599,1.799c-3.059,3.238-4.139,10.076-4.318,14.754c1.439,0,2.878,0.18,4.318,0.18
	c3.419,0,6.657,0,9.896-0.18c0-4.137,0.72-10.075,3.779-13.854C141.804,68.369,138.386,67.47,134.967,67.29z M150.801,73.768
	c-0.18,0.179-0.359,0.179-0.54,0.359c-1.439,1.62-2.159,5.218-2.159,8.636c3.06-0.538,5.938-1.078,8.458-1.979
	C155.12,78.086,153.141,75.747,150.801,73.768z M159.079,87.263c-3.419,1.08-7.197,1.98-10.977,2.519v8.098
	c0,1.978-1.619,3.419-3.418,3.419c-1.979,0-3.419-1.619-3.419-3.419v-7.377c-2.699,0.18-5.578,0.359-8.276,0.359
	c-1.979,0-4.138,0-6.118-0.18v7.197c0,1.978-1.62,3.419-3.419,3.419c-1.979,0-3.419-1.619-3.419-3.419v-7.737
	c-5.218-0.539-9.537-1.081-12.235-1.618c-0.36,1.618-0.54,3.237-0.54,4.856c0,14.575,11.875,26.451,26.271,26.451
	c14.574,0,26.271-11.876,26.271-26.451C159.798,91.401,159.618,89.243,159.079,87.263z M133.887,115.872
	c-5.397,0-9.896-2.518-12.235-4.858c-1.081-1.079-1.081-2.698,0-3.599c0.899-1.08,2.699-1.08,3.598,0
	c0.36,0.359,8.097,7.557,17.813-0.18c1.08-0.9,2.699-0.719,3.599,0.36c0.899,1.079,0.72,2.698-0.36,3.599
	C141.985,114.612,137.667,115.872,133.887,115.872z M91.783,103.817c-1.26,0.539-2.699,0.357-3.599-0.54
	c0,0-9.897-7.917-32.029-7.917c-21.952,0-31.669,8.996-31.849,9.177c-0.719,0.538-1.44,0.899-2.339,0.899
	c-0.54,0-0.9-0.181-1.439-0.361c-1.259-0.538-2.159-1.798-2.159-3.238V59.552c0-0.18,0-0.18,0-0.36c0-0.54,0-1.08,0-1.618
	c0-20.873,16.914-37.786,37.606-37.786c11.876,0,22.673,5.577,29.51,14.394c0,0.181,0.18,0.181,0.18,0.36
	c5.038,6.479,7.917,14.396,7.917,23.212v43.184C93.762,102.018,93.042,103.277,91.783,103.817z M86.564,61.892
	c-3.419,0.539-8.097,0.719-13.135-0.36v4.5c0,1.978-1.62,3.418-3.419,3.418c-1.979,0-3.418-1.62-3.418-3.418v-7.02
	c-1.8-0.9-3.419-2.159-5.039-3.776c-4.318,1.797-9.177,3.598-14.755,4.856v5.939c0,1.978-1.619,3.418-3.418,3.418
	c-1.979,0-3.418-1.62-3.418-3.418v-4.5c-4.319,0.72-9.177,1.261-14.215,1.44c2.519,14.574,15.114,25.552,30.229,25.552
	C71.63,88.523,84.405,76.827,86.564,61.892z M25.387,95.538c3.059-1.617,7.197-3.418,12.595-4.856
	c-5.039-2.7-9.357-6.659-12.595-11.337V95.538z M56.155,26.623c-16.374,0-29.869,12.956-30.769,29.33
	c30.408-0.899,47.502-14.394,52.9-19.793C72.709,30.224,64.792,26.623,56.155,26.623z M82.605,41.737
	c-2.878,2.699-7.557,6.479-14.214,10.078c6.298,4.317,14.395,3.6,18.354,2.878C86.385,50.017,84.945,45.698,82.605,41.737z
	 M86.924,79.345c-3.239,4.498-7.377,8.457-12.235,11.157c5.217,1.259,9.356,2.698,12.235,4.139V79.345z M49.858,74.847
	c0.54,0.541,5.937,5.219,12.775-0.18c1.08-0.899,2.699-0.721,3.599,0.36c0.899,1.079,0.719,2.699-0.36,3.597
	c-3.419,2.701-6.838,3.601-9.717,3.601c-4.318,0-7.917-2.159-9.716-3.78c-1.08-1.079-1.08-2.697,0-3.598
	C47.158,73.946,48.778,73.946,49.858,74.847z M55.975,101.118c19.974,0,36.168,16.193,36.168,36.346v31.31
	c0,1.979-1.62,3.419-3.419,3.419s-3.419-1.619-3.419-3.419v-14.034c-14.034-0.9-27.89-7.738-39.945-19.614
	c-5.938-5.937-10.077-11.696-12.596-15.475c-3.778,4.858-5.938,11.157-5.938,17.813v31.31c0,1.979-1.619,3.419-3.419,3.419
	c-1.979,0-3.418-1.619-3.418-3.419v-31.31C19.989,117.312,36.183,101.118,55.975,101.118z M85.304,147.901v-10.438
	c0-7.557-2.878-14.574-7.557-19.793c-2.159,5.938-6.837,14.937-17.454,20.693C67.131,143.222,75.588,147.001,85.304,147.901z
	 M54.176,133.687c0.18-0.18,0.359-0.18,0.54-0.18c12.235-5.578,16.194-16.195,17.454-20.693c-4.679-3.06-10.077-4.858-16.015-4.858
	c-7.017,0-13.315,2.519-18.354,6.478C40.141,118.392,45.719,126.489,54.176,133.687z M135.687,130.986
	c17.094,0,31.129,13.496,31.129,29.869v6.839c0,1.979-1.619,3.418-3.419,3.418c-1.799,0-3.418-1.619-3.418-3.418v-6.839
	c0-12.775-10.977-23.03-24.292-23.03c-13.315,0-24.291,10.255-24.291,23.03v6.839c0,1.979-1.62,3.418-3.419,3.418
	c-1.979,0-3.418-1.619-3.418-3.418v-6.839C104.379,144.482,118.413,130.986,135.687,130.986z"/>
</svg>
