<?xml version="1.0" encoding="utf-8"?>
<!-- Generator: Adobe Illustrator 16.0.0, SVG Export Plug-In . SVG Version: 6.00 Build 0)  -->
<!DOCTYPE svg PUBLIC "-//W3C//DTD SVG 1.1//EN" "http://www.w3.org/Graphics/SVG/1.1/DTD/svg11.dtd">
<svg version="1.1" id="Layer_1" xmlns="http://www.w3.org/2000/svg" xmlns:xlink="http://www.w3.org/1999/xlink" x="0px" y="0px"
	 width="192px" height="210.461px" viewBox="0 0 192 210.461" enable-background="new 0 0 192 210.461" xml:space="preserve">
<g>
	<path fill="#EDEDF7" d="M19.5,156.612c1.339-11.483,7.272-21.627,16.268-28.134c0.191,0,0.383-0.191,0.574-0.383
		c3.253-2.297,6.89-4.019,10.717-5.358c0.192,0,0.192,0,0.192-0.191c2.296-0.766,4.784-1.148,7.272-1.531
		c1.272,8.625,6.625,15.881,14.039,19.706c-0.146-1.479-0.224-2.979-0.224-4.496c0-1.183,0.06-2.351,0.148-3.511
		c-4.419-3.59-7.265-9.055-7.265-15.144c0-0.384,0-0.766-0.191-0.957c3.376,1.371,6.871,2.38,10.448,3.021
		c0.855-2.18,1.873-4.277,3.04-6.28c-9.604-1.282-18.591-5.798-25.162-13.008V57.858h8.229c9.761,0,18.373-5.358,22.966-13.397
		c0.191,0,0.382,0,0.382,0.191c0.192,0.383,0.383,0.574,0.574,0.957c0,0.191,0.191,0.191,0.191,0.383
		c0.191,0.383,0.574,0.766,0.957,1.34l0.191,0.191c0.191,0.383,0.574,0.574,0.765,0.957c0.191,0.191,0.191,0.191,0.383,0.383
		c0.191,0.383,0.574,0.574,0.765,0.957l0.191,0.191c0.383,0.383,0.766,0.766,1.148,0.957l0.191,0.19
		c0.383,0.192,0.574,0.575,0.957,0.766c0.191,0.192,0.191,0.192,0.383,0.384c0.383,0.19,0.574,0.574,0.957,0.765l0.191,0.191
		c0.382,0.191,0.765,0.574,1.339,0.766c0.191,0,0.191,0.191,0.383,0.191c0.383,0.191,0.765,0.383,0.957,0.574
		c0.191,0,0.383,0.191,0.383,0.191c0.383,0.191,0.765,0.383,1.148,0.574c0,0,0.191,0,0.191,0.191
		c0.383,0.191,0.957,0.383,1.531,0.574c0.191,0,0.191,0,0.383,0.191c0.383,0.191,0.766,0.191,1.148,0.383
		c0.191,0,0.383,0,0.383,0.19c0.383,0.192,0.957,0.192,1.339,0.384h0.191c0.574,0.191,0.957,0.191,1.531,0.191
		c0.191,0,0.383,0,0.383,0c0.383,0,0.765,0,1.148,0.191c0.191,0,0.382,0,0.574,0c0.574,0,1.148,0,1.723,0h7.464v32.878
		c0.984-0.063,1.974-0.107,2.974-0.107c1.38,0,2.749,0.069,4.107,0.19V54.413c0-1.914-1.531-3.445-3.445-3.445h-10.909
		c-10.718,0-19.521-8.804-19.521-19.521c0-1.914-1.531-3.445-3.445-3.445c-1.914,0-3.445,1.531-3.445,3.445
		c0,10.717-8.804,19.521-19.521,19.521H46.103c-1.914,0-3.445,1.531-3.445,3.445v62.773c-1.531,0.574-3.253,1.34-4.784,2.105V62.643
		c0-23.54,19.138-42.487,42.487-42.487c23.54,0,42.487,19.139,42.487,42.487v28.853c2.421,0.478,4.786,1.159,7.082,2.02V62.643
		c0-27.368-22.201-49.568-49.568-49.568c-27.368,0-49.568,22.2-49.568,49.568v60.86c-1.723,1.34-3.445,2.87-4.977,4.401
		C17.395,136.517,12.61,148,12.61,160.248c0.191,1.914,1.722,3.445,3.636,3.445h61.323c-1.674-2.212-3.146-4.582-4.401-7.081H19.5z
		 M49.547,109.531c2.105,1.723,4.402,3.254,6.698,4.594c-2.296,0.191-4.593,0.383-6.698,0.957V109.531z"/>
	<path fill="#EDEDF7" d="M83.997,98.24l4.976-10.717c0-0.192,0-0.192,0.191-0.384c0-0.191,0-0.191,0-0.382c0-0.192,0-0.192,0-0.383
		c0-0.191,0-0.191,0-0.383V85.8c0-0.191,0-0.191,0-0.382c0-0.191,0-0.191,0-0.383s0-0.191-0.191-0.383c0-0.191,0-0.191-0.191-0.383
		c0-0.191-0.191-0.191-0.191-0.383l-0.191-0.191l-0.191-0.191l-0.191-0.191l-0.191-0.191c-0.191,0-0.191-0.191-0.383-0.191
		c0,0-0.191,0-0.191-0.191c-0.191,0-0.191,0-0.383-0.191c-0.191,0-0.191,0-0.383-0.191h-0.191c-0.191,0-0.191,0-0.383,0h-8.804
		l6.89-14.545c0.766-1.723,0-3.828-1.723-4.594c-1.722-0.766-3.828,0-4.593,1.723l-9.378,19.521c0,0.191,0,0.191-0.191,0.382
		c0,0.191,0,0.191,0,0.384c0,0.19,0,0.19,0,0.382s0,0.191,0,0.384v0.19c0,0.191,0,0.191,0,0.383s0,0.191,0,0.383
		s0,0.191,0.191,0.383c0,0.191,0,0.191,0.191,0.383c0,0.191,0.191,0.191,0.191,0.383l0.191,0.191l0.191,0.191l0.191,0.191
		l0.191,0.191c0.191,0,0.191,0.191,0.383,0.191c0,0,0.191,0,0.191,0.191c0.191,0,0.383,0.191,0.574,0.191h0.191
		c0.191,0,0.383,0,0.574,0c0,0,0,0,0.191,0h8.804l-2.68,5.741c-0.766,1.723,0,3.828,1.723,4.594
		c0.574,0.191,0.957,0.383,1.531,0.383C82.274,100.154,83.422,99.389,83.997,98.24z"/>
	<circle fill="#EDEDF7" cx="58.159" cy="66.47" r="3.445"/>
	<circle fill="#EDEDF7" cx="102.943" cy="66.47" r="3.445"/>
	<path fill="#EDEDF7" d="M122.847,116.662v-6.269c-1.539-0.531-3.136-0.936-4.785-1.185v5.909
		C119.736,115.443,121.335,115.972,122.847,116.662z"/>
	<path fill="#EDEDF7" d="M126.292,153.808v2.996h5.61c3.252-2.84,5.827-6.435,7.449-10.512c-1.055-2.778-2.401-5.398-4.009-7.816
		C134.67,144.806,131.24,150.317,126.292,153.808z"/>
	<path fill="#EDEDF7" d="M100.072,152.627c-3.518-2.983-6.062-7.071-7.1-11.726c-1.731,0.889-3.574,1.584-5.498,2.077
		c1.388,5.446,4.418,10.237,8.525,13.825h4.072V152.627z"/>
	<path fill="#EDEDF7" d="M92.727,132.917c0.815-5.243,3.513-9.87,7.402-13.145c0.083-0.725,0.135-1.457,0.135-2.202
		c0-0.384,0-0.957,0.192-1.34c-2.457,1.042-4.972,1.904-7.544,2.576c-3.91,4.718-6.267,10.768-6.28,17.361
		C88.864,135.454,90.917,134.337,92.727,132.917z"/>
	<path fill="#EDEDF7" d="M132.017,124.586c1.274,1.018,2.543,2.085,3.653,3.318c2.102,2.148,3.96,4.459,5.575,6.896
		c-0.44-8.524-4.808-16.018-11.316-20.725v7.796C130.693,122.72,131.394,123.623,132.017,124.586z"/>
	<path fill="#EDEDF7" d="M111.364,109.531c-2.105,1.723-4.402,3.254-6.699,4.594c2.292,0,4.393,0.381,6.683,0.763
		c0.005,0,0.01-0.002,0.016-0.002V109.531z"/>
	<path fill="#EDEDF7" d="M106.771,156.804h0.934c-0.317-0.097-0.623-0.217-0.934-0.328V156.804z"/>
	<path fill="#EDEDF7" d="M126.292,153.808c-3.498,2.467-7.749,3.93-12.337,3.93c-2.174,0-4.271-0.33-6.25-0.934h-0.934v-0.328
		c-2.47-0.879-4.736-2.185-6.699-3.849v4.177H96c4.805,4.197,11.084,6.748,17.955,6.748c6.862,0,13.14-2.551,17.947-6.748h-5.61
		V153.808z"/>
	<path fill="#EDEDF7" d="M132.017,124.586c2.173,3.359,3.449,7.351,3.449,11.639c-0.001,0.761-0.045,1.511-0.124,2.251
		c1.607,2.418,2.954,5.038,4.009,7.816c1.24-3.117,1.93-6.512,1.93-10.067c0-0.478-0.013-0.952-0.037-1.425
		c-1.615-2.437-3.473-4.747-5.575-6.896C134.56,126.671,133.291,125.604,132.017,124.586z"/>
	<path fill="#EDEDF7" d="M92.445,136.225c0-1.127,0.113-2.226,0.281-3.308c-1.809,1.42-3.863,2.537-6.095,3.251
		c0,0.019-0.001,0.038-0.001,0.057c0,2.331,0.294,4.593,0.845,6.754c1.924-0.493,3.767-1.188,5.498-2.077
		C92.637,139.394,92.445,137.832,92.445,136.225z"/>
	<path fill="#EDEDF7" d="M100.264,117.57c0,0.745-0.052,1.478-0.135,2.202c3.114-2.622,6.979-4.368,11.22-4.885
		c-2.291-0.382-4.392-0.763-6.683-0.763c2.297-1.34,4.593-2.871,6.699-4.594v5.354c0.851-0.104,1.712-0.172,2.591-0.172
		c1.405,0,2.776,0.146,4.107,0.404v-5.909c-1.34-0.203-2.712-0.31-4.107-0.31c-8.46,0-16.029,3.857-21.044,9.907
		c2.572-0.672,5.088-1.534,7.544-2.576C100.264,116.613,100.264,117.187,100.264,117.57z"/>
	<path fill="#EDEDF7" d="M129.929,121.871v-7.796c-2.148-1.553-4.53-2.801-7.082-3.682v6.269
		C125.557,117.899,127.96,119.683,129.929,121.871z"/>
	<path fill="#EDEDF7" d="M74.034,142.792c0.582,3.545,1.629,6.934,3.072,10.107v-9.493
		C76.058,143.269,75.039,143.049,74.034,142.792z"/>
	<path fill="#EDEDF7" d="M141.794,156.804c0-0.006-0.001-0.012-0.002-0.018c-0.004,0.006-0.008,0.012-0.012,0.018H141.794z"/>
	<path fill="#EDEDF7" d="M83.194,120.354c-0.938,0.055-1.882,0.087-2.833,0.087c-1.205,0-2.4-0.059-3.592-0.145
		c-2.036,4.731-3.188,9.926-3.262,15.375c1.83,0.74,3.793,1.201,5.842,1.349c-0.006-0.265-0.02-0.528-0.02-0.795
		C79.328,130.506,80.729,125.111,83.194,120.354z"/>
	<path fill="#EDEDF7" d="M84.379,156.804h1.745c-0.619-0.834-1.202-1.696-1.745-2.586V156.804z"/>
	<path fill="#EDEDF7" d="M118.062,101.851c1.632,0.193,3.23,0.497,4.785,0.91v-5.98c-1.564-0.354-3.158-0.625-4.785-0.791V101.851z"
		/>
	<path fill="#EDEDF7" d="M109.415,101.905c0.534-0.506,1.057-1.025,1.566-1.56v-4.442c-12.757,0.932-23.89,7.789-30.639,17.834
		c2.721-0.012,5.408-0.297,8.033-0.829C93.749,107.02,101.125,102.996,109.415,101.905z"/>
	<path fill="#EDEDF7" d="M148.582,136.225c0,3.706-0.592,7.274-1.675,10.624c1.299,4.307,1.968,8.811,1.968,13.399
		c0,0.989-0.414,1.871-1.074,2.497c14.47,9.224,24.19,17.867,24.642,22.111c0.082,1.01-0.804,3.257-2.929,5.463
		c-4.641,4.806-6.909,4.373-6.909,4.373c-4.455-0.473-13.755-11.157-23.49-26.829c0-0.022,0-0.022,0-0.044
		c1.587-1.258,3.055-2.645,4.429-4.126h-8.547c-5.839,4.484-13.136,7.158-21.043,7.158c-7.916,0-15.214-2.674-21.052-7.158h-8.612
		c7.392,7.972,17.944,12.976,29.643,12.976c7.425,0,14.375-2.021,20.356-5.508c7.197,11.59,19.056,28.419,27.676,29.327
		c0.248,0.021,5.073,1.03,11.859-6.269c1.484-1.609,4.825-5.837,4.392-9.963c-0.907-8.62-17.756-20.479-29.348-27.677
		c3.506-5.979,5.507-12.931,5.507-20.355c0.016-16.624-10.074-30.938-24.449-37.146v6.438
		C141.003,111.299,148.582,122.888,148.582,136.225z"/>
	<path fill="#EDEDF7" d="M86.124,156.804h-1.745v-2.586c-3.073-5.034-4.888-10.912-5.031-17.198
		c-2.048-0.147-4.012-0.608-5.842-1.349c-0.002,0.186-0.014,0.368-0.014,0.554c0,2.236,0.19,4.429,0.542,6.567
		c1.004,0.257,2.024,0.477,3.072,0.614v9.493c1.812,3.982,4.245,7.624,7.185,10.794h8.612
		C90.337,161.722,88.052,159.404,86.124,156.804z"/>
	<path fill="#EDEDF7" d="M122.847,102.761c2.481,0.66,4.851,1.592,7.082,2.756v-6.438c-2.261-0.977-4.63-1.746-7.082-2.299V102.761z
		"/>
	<path fill="#EDEDF7" d="M109.415,101.905c1.487-0.195,3-0.307,4.54-0.307c1.391,0,2.759,0.092,4.107,0.252v-5.861
		c-1.351-0.137-2.721-0.207-4.107-0.207c-1.001,0-1.99,0.049-2.974,0.121v4.442C110.472,100.88,109.949,101.399,109.415,101.905z"/>
	<path fill="#EDEDF7" d="M141.794,156.804h-0.014c-1.929,2.601-4.215,4.918-6.782,6.89h8.547c0.698-0.753,1.38-1.522,2.026-2.327
		c0.02,0,0.02,0,0.041,0c0.742,0.461,1.47,0.92,2.189,1.379c0.66-0.626,1.074-1.508,1.074-2.497c0-4.589-0.669-9.093-1.968-13.399
		c-1.166,3.605-2.905,6.955-5.115,9.938C141.793,156.792,141.794,156.798,141.794,156.804z"/>
	<path fill="#EDEDF7" d="M83.194,120.354c1.402-2.708,3.145-5.212,5.182-7.445c-2.625,0.532-5.312,0.817-8.033,0.829
		c-1.384,2.061-2.583,4.256-3.574,6.559c1.191,0.086,2.387,0.145,3.592,0.145C81.312,120.44,82.256,120.408,83.194,120.354z"/>
</g>
</svg>
