<?xml version="1.0" encoding="utf-8"?>
<!-- Generator: Adobe Illustrator 16.0.0, SVG Export Plug-In . SVG Version: 6.00 Build 0)  -->
<!DOCTYPE svg PUBLIC "-//W3C//DTD SVG 1.1//EN" "http://www.w3.org/Graphics/SVG/1.1/DTD/svg11.dtd">
<svg version="1.1" id="Layer_1" xmlns="http://www.w3.org/2000/svg" xmlns:xlink="http://www.w3.org/1999/xlink" x="0px" y="0px"
	 width="192px" height="210.461px" viewBox="0 0 192 210.461" enable-background="new 0 0 192 210.461" xml:space="preserve">
<g>
	<g>
		<path fill="#EDEDF7" d="M41.552,100.474c11.093,0,20.117-9.024,20.117-20.117c0-11.091-9.024-20.114-20.117-20.114
			c-11.094,0-20.118,9.023-20.118,20.114C21.434,91.449,30.458,100.474,41.552,100.474z M41.552,66.214
			c7.801,0,14.148,6.346,14.148,14.145c0,7.802-6.348,14.148-14.148,14.148c-7.802,0-14.148-6.347-14.148-14.148
			C27.403,72.56,33.75,66.214,41.552,66.214z"/>
		<path fill="#EDEDF7" d="M41.552,101.947c-17.138,0-32.516,18.886-36.127,36.524l-0.488,2.381
			c-0.061,0.295,0.015,0.601,0.205,0.833c0.189,0.233,0.475,0.368,0.774,0.368h71.249c0.301,0,0.586-0.136,0.776-0.369
			s0.265-0.54,0.203-0.835l-0.498-2.39C74.446,123.152,60.123,101.947,41.552,101.947z M70.861,136.085H12.179
			c2.093-6.977,6.061-13.845,11.01-19.014c5.652-5.903,12.175-9.154,18.365-9.154C55.89,107.917,67.062,123.976,70.861,136.085z"/>
		<path fill="#EDEDF7" d="M176.864,4.887h-69.461c-5.977,0-11.628,5.631-11.628,11.587v4.238L85.61,26.637
			c-0.307,0.18-0.496,0.509-0.496,0.864s0.189,0.685,0.496,0.863l10.165,5.93v21.872c0,6.422,5.912,10.259,11.628,10.259h69.461
			c6.018,0,10.219-4.219,10.219-10.259V16.474C187.083,10.778,183.261,4.887,176.864,4.887z M101.249,30.577l-5.271-3.073
			l5.271-3.077c0.307-0.179,0.496-0.508,0.496-0.863v-7.09c0-2.729,2.908-5.617,5.658-5.617h69.461c2.66,0,4.25,2.855,4.25,5.617
			v39.692c0,2.767-1.509,4.291-4.25,4.291h-69.461c-2.721,0-5.658-1.641-5.658-4.291V31.441
			C101.745,31.086,101.556,30.757,101.249,30.577z"/>
		<path fill="#EDEDF7" d="M118.606,30.702h45.646c0.553,0,1-0.447,1-1v-3.969c0-0.553-0.447-1-1-1h-45.646c-0.553,0-1,0.447-1,1
			v3.969C117.606,30.255,118.054,30.702,118.606,30.702z"/>
		<path fill="#EDEDF7" d="M118.606,46.579h37.707c0.553,0,1-0.447,1-1v-3.97c0-0.552-0.447-1-1-1h-37.707c-0.553,0-1,0.448-1,1v3.97
			C117.606,46.132,118.054,46.579,118.606,46.579z"/>
		<path fill="#EDEDF7" d="M176.864,70.38h-69.461c-5.977,0-11.628,5.631-11.628,11.586v4.237L85.61,92.13
			c-0.307,0.18-0.496,0.509-0.496,0.864s0.189,0.685,0.496,0.864l10.165,5.928v21.871c0,6.423,5.912,10.261,11.628,10.261h69.461
			c6.018,0,10.219-4.22,10.219-10.261V81.966C187.083,76.271,183.261,70.38,176.864,70.38z M101.249,96.071l-5.271-3.075
			l5.271-3.075c0.307-0.18,0.496-0.509,0.496-0.864v-7.091c0-2.729,2.908-5.617,5.658-5.617h69.461c2.66,0,4.25,2.855,4.25,5.617
			v39.691c0,2.768-1.509,4.291-4.25,4.291h-69.461c-2.721,0-5.658-1.641-5.658-4.291V96.935
			C101.745,96.579,101.556,96.25,101.249,96.071z"/>
		<path fill="#EDEDF7" d="M118.606,96.195h45.646c0.553,0,1-0.448,1-1v-3.97c0-0.553-0.447-1-1-1h-45.646c-0.553,0-1,0.447-1,1v3.97
			C117.606,95.747,118.054,96.195,118.606,96.195z"/>
		<path fill="#EDEDF7" d="M118.606,112.072h37.707c0.553,0,1-0.448,1-1v-3.97c0-0.553-0.447-1-1-1h-37.707c-0.553,0-1,0.447-1,1
			v3.97C117.606,111.624,118.054,112.072,118.606,112.072z"/>
		<path fill="#EDEDF7" d="M176.864,135.872h-69.461c-5.977,0-11.628,5.631-11.628,11.586v4.238l-10.165,5.928
			c-0.307,0.179-0.496,0.508-0.496,0.863s0.189,0.685,0.496,0.863l10.165,5.929v21.871c0,6.423,5.912,10.261,11.628,10.261h69.461
			c6.018,0,10.219-4.22,10.219-10.261v-39.692C187.083,141.763,183.261,135.872,176.864,135.872z M101.249,161.563l-5.271-3.074
			l5.271-3.076c0.307-0.18,0.496-0.509,0.496-0.864v-7.091c0-2.729,2.908-5.616,5.658-5.616h69.461c2.66,0,4.25,2.855,4.25,5.616
			v39.692c0,2.767-1.509,4.291-4.25,4.291h-69.461c-2.721,0-5.658-1.641-5.658-4.291v-24.724
			C101.745,162.071,101.556,161.742,101.249,161.563z"/>
		<path fill="#EDEDF7" d="M118.606,161.688h45.646c0.553,0,1-0.448,1-1v-3.969c0-0.552-0.447-1-1-1h-45.646c-0.553,0-1,0.448-1,1
			v3.969C117.606,161.239,118.054,161.688,118.606,161.688z"/>
		<path fill="#EDEDF7" d="M118.606,177.565h37.707c0.553,0,1-0.447,1-1v-3.97c0-0.552-0.447-1-1-1h-37.707c-0.553,0-1,0.448-1,1
			v3.97C117.606,177.118,118.054,177.565,118.606,177.565z"/>
	</g>
</g>
</svg>
