<?xml version="1.0" encoding="utf-8"?>
<!-- Generator: Adobe Illustrator 16.0.0, SVG Export Plug-In . SVG Version: 6.00 Build 0)  -->
<!DOCTYPE svg PUBLIC "-//W3C//DTD SVG 1.1//EN" "http://www.w3.org/Graphics/SVG/1.1/DTD/svg11.dtd">
<svg version="1.1" id="Layer_1" xmlns="http://www.w3.org/2000/svg" xmlns:xlink="http://www.w3.org/1999/xlink" x="0px" y="0px"
	 width="192px" height="210.461px" viewBox="0 0 192 210.461" enable-background="new 0 0 192 210.461" xml:space="preserve">
<g>
	<path fill="none" d="M94.473,120.452c3.271,0.831,6.659,1.265,10.083,1.265c11.213,0,21.875-4.778,29.594-12.866V68.043h-7.168
		c-0.551,0-1.103,0-1.653,0c-0.185,0-0.369,0-0.553,0c-0.368-0.184-0.736-0.184-1.103-0.184c0,0-0.185,0-0.368,0
		c-0.551,0-0.919,0-1.471-0.185h-0.185c-0.368-0.183-0.919-0.183-1.286-0.367c0-0.184-0.185-0.184-0.368-0.184
		c-0.367-0.184-0.734-0.184-1.103-0.368c-0.184-0.184-0.184-0.184-0.366-0.184c-0.552-0.185-1.104-0.368-1.472-0.552
		c0-0.184-0.184-0.184-0.184-0.184c-0.368-0.184-0.736-0.367-1.103-0.552c0,0-0.185-0.184-0.368-0.184
		c-0.184-0.185-0.551-0.367-0.919-0.552c-0.183,0-0.183-0.184-0.366-0.184c-0.553-0.184-0.921-0.552-1.286-0.736l-0.185-0.184
		c-0.367-0.182-0.552-0.551-0.92-0.733c-0.183-0.185-0.183-0.185-0.367-0.369c-0.367-0.183-0.552-0.55-0.92-0.735l-0.183-0.183
		c-0.368-0.185-0.735-0.552-1.104-0.919l-0.185-0.184c-0.184-0.368-0.551-0.553-0.734-0.92c-0.185-0.185-0.185-0.185-0.368-0.367
		c-0.185-0.368-0.551-0.553-0.735-0.92l-0.184-0.185c-0.368-0.551-0.736-0.919-0.92-1.286c0-0.185-0.183-0.185-0.183-0.368
		c-0.185-0.367-0.368-0.552-0.553-0.919c0-0.185-0.184-0.185-0.368-0.185c-4.412,7.723-12.681,12.869-22.058,12.869h-7.902V108.6
		C82.571,110.624,89.309,114.806,94.473,120.452z M126.431,73.005c1.826,0,3.308,1.482,3.308,3.31s-1.481,3.309-3.308,3.309
		c-1.827,0-3.31-1.481-3.31-3.309S124.604,73.005,126.431,73.005z M83.416,79.623c-1.826,0-3.308-1.481-3.308-3.309
		s1.481-3.31,3.308-3.31c1.828,0,3.309,1.482,3.309,3.31S85.244,79.623,83.416,79.623z M92.976,95.982c0-0.185,0-0.185,0-0.368
		s0-0.184,0-0.367v-0.183c0-0.185,0-0.185,0-0.368s0-0.184,0-0.368c0-0.184,0-0.184,0-0.368c0.185-0.183,0.185-0.183,0.185-0.366
		l9.004-18.751c0.736-1.653,2.758-2.389,4.413-1.653c1.655,0.736,2.39,2.757,1.655,4.411l-6.619,13.97h8.458
		c0.184,0,0.184,0,0.366,0h0.185c0.184,0.185,0.184,0.185,0.368,0.185c0.184,0.184,0.184,0.184,0.367,0.184
		c0,0.184,0.185,0.184,0.185,0.184c0.183,0,0.183,0.185,0.367,0.185l0.184,0.183l0.185,0.184l0.184,0.185l0.184,0.185
		c0,0.184,0.185,0.184,0.185,0.367c0.184,0.185,0.184,0.185,0.184,0.368c0.182,0.183,0.182,0.183,0.182,0.367
		c0,0.184,0,0.184,0,0.368c0,0.184,0,0.184,0,0.367v0.185c0,0.183,0,0.183,0,0.366s0,0.184,0,0.369c0,0.183,0,0.183,0,0.366
		c-0.182,0.185-0.182,0.185-0.182,0.369l-4.78,10.293c-0.553,1.103-1.655,1.839-2.942,1.839c-0.552,0-0.919-0.184-1.471-0.368
		c-1.655-0.734-2.39-2.758-1.655-4.413l2.574-5.514h-8.454c-0.184,0-0.184,0-0.184,0c-0.185,0-0.368,0-0.552,0h-0.185
		c-0.184,0-0.368-0.184-0.551-0.184c0-0.184-0.184-0.184-0.184-0.184c-0.185,0-0.185-0.184-0.368-0.184l-0.185-0.185l-0.184-0.184
		l-0.183-0.185l-0.185-0.184c0-0.184-0.183-0.184-0.183-0.368c-0.184-0.184-0.184-0.184-0.184-0.366
		C92.976,96.166,92.976,96.166,92.976,95.982z"/>
	<path fill="none" d="M105.106,144.143c10.294,0,18.75-8.456,18.75-18.748c0-0.369,0-0.92,0.183-1.287
		c-6.064,2.574-12.497,4.044-19.301,4.044c-1.636,0-3.259-0.085-4.867-0.248c2.758,4.877,4.534,10.375,5.062,16.23
		C104.991,144.134,105.048,144.143,105.106,144.143z"/>
	<path fill="none" d="M134.518,117.672c-2.023,1.655-4.228,3.126-6.434,4.413c2.206,0,4.227,0.367,6.434,0.735V117.672z"/>
	<path fill="none" d="M68.527,107.435v-42.7c0-1.839,1.47-3.31,3.309-3.31h11.213c10.295,0,18.749-8.455,18.749-18.749
		c0-1.838,1.47-3.309,3.309-3.309s3.31,1.471,3.31,3.309c0,10.294,8.455,18.749,18.749,18.749h10.478
		c1.838,0,3.309,1.471,3.309,3.31v59.924c1.654,0.552,3.124,1.102,4.596,1.838V72.639c0-22.426-18.197-40.808-40.809-40.808
		c-22.425,0-40.806,18.197-40.806,40.808v34.613c0.204-0.003,0.405-0.016,0.609-0.016C65.887,107.236,67.216,107.306,68.527,107.435
		z"/>
	<path fill="none" d="M147.752,135.503c-0.186-0.184-0.368-0.184-0.551-0.367c-3.126-2.022-6.617-3.678-10.295-4.779
		c-0.184-0.184-0.184-0.184-0.368-0.184c-2.021-0.734-4.044-1.104-6.249-1.287c-1.47,11.213-10.477,20.036-21.688,21.507v12.685
		h15.072v-15.26c0-1.836,1.471-3.307,3.309-3.307h18.565c1.837,0,3.309,1.471,3.309,3.307v15.26h14.889
		C162.642,151.495,156.575,141.569,147.752,135.503z"/>
	<rect x="130.105" y="151.128" fill="none" width="11.948" height="11.949"/>
	<path fill="#EDEDF7" d="M157.862,135.319c-1.655-1.839-3.676-3.309-5.515-4.778V72.639c0-26.286-21.322-47.609-47.609-47.609
		c-26.285,0-47.608,21.323-47.608,47.609v35.288c2.211-0.41,4.482-0.641,6.803-0.675V72.639c0-22.61,18.381-40.808,40.806-40.808
		c22.611,0,40.809,18.382,40.809,40.808v53.857c-1.472-0.736-2.941-1.286-4.596-1.838V64.734c0-1.839-1.471-3.31-3.309-3.31h-10.478
		c-10.294,0-18.749-8.455-18.749-18.749c0-1.838-1.471-3.309-3.31-3.309s-3.309,1.471-3.309,3.309
		c0,10.294-8.454,18.749-18.749,18.749H71.836c-1.839,0-3.309,1.471-3.309,3.31v42.7c2.201,0.215,4.35,0.61,6.435,1.165V68.043
		h7.902c9.377,0,17.646-5.146,22.058-12.869c0.185,0,0.368,0,0.368,0.185c0.185,0.367,0.368,0.552,0.553,0.919
		c0,0.184,0.183,0.184,0.183,0.368c0.184,0.367,0.552,0.735,0.92,1.286l0.184,0.185c0.185,0.367,0.551,0.552,0.735,0.92
		c0.184,0.183,0.184,0.183,0.368,0.367c0.184,0.367,0.551,0.552,0.734,0.92l0.185,0.184c0.368,0.367,0.735,0.734,1.104,0.919
		l0.183,0.183c0.368,0.186,0.553,0.553,0.92,0.735c0.185,0.185,0.185,0.185,0.367,0.369c0.368,0.183,0.553,0.552,0.92,0.733
		l0.185,0.184c0.365,0.185,0.733,0.553,1.286,0.736c0.184,0,0.184,0.184,0.366,0.184c0.368,0.185,0.735,0.367,0.919,0.552
		c0.184,0,0.368,0.184,0.368,0.184c0.366,0.185,0.734,0.368,1.103,0.552c0,0,0.184,0,0.184,0.184
		c0.367,0.184,0.92,0.367,1.472,0.552c0.183,0,0.183,0,0.366,0.184c0.368,0.185,0.735,0.185,1.103,0.368
		c0.184,0,0.368,0,0.368,0.184c0.367,0.185,0.918,0.185,1.286,0.367h0.185c0.552,0.185,0.92,0.185,1.471,0.185
		c0.184,0,0.368,0,0.368,0c0.366,0,0.734,0,1.103,0.184c0.184,0,0.368,0,0.553,0c0.551,0,1.103,0,1.653,0h7.168v40.808
		c-7.719,8.088-18.381,12.866-29.594,12.866c-3.424,0-6.812-0.434-10.083-1.265c2.069,2.263,3.879,4.764,5.398,7.451
		c1.608,0.163,3.231,0.248,4.867,0.248c6.804,0,13.236-1.47,19.301-4.044c-0.183,0.367-0.183,0.918-0.183,1.287
		c0,10.292-8.456,18.748-18.75,18.748c-0.059,0-0.115-0.009-0.174-0.009c0.109,1.208,0.174,2.429,0.174,3.665
		c0,8.062-2.373,15.574-6.444,21.896h68.574c1.839,0,3.31-1.472,3.31-3.311C170.546,154.804,166.133,143.774,157.862,135.319z
		 M134.518,117.672v5.148c-2.207-0.368-4.228-0.735-6.434-0.735C130.29,120.798,132.494,119.327,134.518,117.672z M142.054,163.077
		h-11.948v-11.949h11.948V163.077z M148.855,163.077v-15.26c0-1.836-1.472-3.307-3.309-3.307h-18.565
		c-1.838,0-3.309,1.471-3.309,3.307v15.26h-15.072v-12.685c11.212-1.471,20.219-10.294,21.688-21.507
		c2.205,0.184,4.229,0.553,6.249,1.287c0.185,0,0.185,0,0.368,0.184c3.678,1.102,7.169,2.757,10.295,4.779
		c0.183,0.184,0.365,0.184,0.551,0.367c8.823,6.066,14.89,15.992,15.992,27.574H148.855z"/>
	<path fill="#EDEDF7" d="M93.526,97.085l0.185,0.184l0.183,0.185l0.184,0.184l0.185,0.185c0.184,0,0.184,0.184,0.368,0.184
		c0,0,0.184,0,0.184,0.184c0.183,0,0.367,0.184,0.551,0.184h0.185c0.184,0,0.367,0,0.552,0c0,0,0,0,0.184,0h8.454l-2.574,5.514
		c-0.734,1.655,0,3.679,1.655,4.413c0.552,0.185,0.919,0.368,1.471,0.368c1.287,0,2.39-0.736,2.942-1.839l4.78-10.293
		c0-0.185,0-0.185,0.182-0.369c0-0.184,0-0.184,0-0.366c0-0.186,0-0.186,0-0.369s0-0.184,0-0.366V94.88c0-0.184,0-0.184,0-0.367
		c0-0.185,0-0.185,0-0.368c0-0.185,0-0.185-0.182-0.367c0-0.184,0-0.184-0.184-0.368c0-0.184-0.185-0.184-0.185-0.367l-0.184-0.185
		l-0.184-0.185l-0.185-0.184l-0.184-0.183c-0.185,0-0.185-0.185-0.367-0.185c0,0-0.185,0-0.185-0.184c-0.184,0-0.184,0-0.367-0.184
		c-0.185,0-0.185,0-0.368-0.185h-0.185c-0.183,0-0.183,0-0.366,0h-8.458l6.619-13.97c0.734-1.654,0-3.675-1.655-4.411
		c-1.655-0.735-3.677,0-4.413,1.653L93.16,93.594c0,0.184,0,0.184-0.185,0.366c0,0.185,0,0.185,0,0.368c0,0.185,0,0.185,0,0.368
		s0,0.184,0,0.368v0.183c0,0.184,0,0.184,0,0.367s0,0.184,0,0.368c0,0.184,0,0.184,0.185,0.368c0,0.183,0,0.183,0.184,0.366
		C93.344,96.901,93.526,96.901,93.526,97.085z"/>
	<circle fill="#EDEDF7" cx="83.416" cy="76.314" r="3.309"/>
	<circle fill="#EDEDF7" cx="126.431" cy="76.314" r="3.309"/>
	<path fill="#EDEDF7" d="M94.473,120.452c-5.164-5.646-11.901-9.828-19.511-11.853v0.251
		C80.197,114.596,87.03,118.562,94.473,120.452z"/>
	<path fill="#EDEDF7" d="M64.542,182.694c-19.241,0-34.895-15.654-34.895-34.896c0-16.696,11.791-30.685,27.482-34.094v-5.778
		c-18.838,3.494-33.152,20.038-33.152,39.872c0,22.367,18.197,40.564,40.564,40.564c14.306,0,26.896-7.451,34.12-18.669h-6.977
		C85.283,177.616,75.497,182.694,64.542,182.694z"/>
	<path fill="#EDEDF7" d="M64.542,112.905c1.349,0,2.677,0.085,3.985,0.234v-5.705c-1.312-0.129-2.641-0.198-3.985-0.198
		c-0.204,0-0.405,0.013-0.609,0.016v5.669C64.136,112.917,64.338,112.905,64.542,112.905z"/>
	<path fill="#EDEDF7" d="M101.613,162.893v-12.684c-0.759-0.1-1.503-0.239-2.238-0.404c-0.266,4.664-1.448,9.087-3.375,13.088
		H101.613z"/>
	<path fill="#EDEDF7" d="M99.115,143.133c1.834,0.626,3.786,0.981,5.817,1.001c-0.527-5.855-2.304-11.354-5.062-16.23
		c-2.627-0.268-5.212-0.758-7.746-1.439C95.8,131.204,98.279,136.91,99.115,143.133z"/>
	<path fill="#EDEDF7" d="M63.933,112.921v-5.669c-2.32,0.034-4.592,0.265-6.803,0.675v5.778
		C59.328,113.228,61.603,112.961,63.933,112.921z"/>
	<path fill="#EDEDF7" d="M104.933,144.134c-2.031-0.02-3.983-0.375-5.817-1.001c0.205,1.527,0.321,3.083,0.321,4.666
		c0,0.674-0.023,1.342-0.062,2.006c0.735,0.165,1.479,0.305,2.238,0.404v12.684H96c-1.175,2.438-2.63,4.717-4.314,6.802h6.977
		c4.071-6.321,6.444-13.834,6.444-21.896C105.106,146.562,105.042,145.342,104.933,144.134z"/>
	<path fill="#EDEDF7" d="M92.125,126.464c2.534,0.682,5.119,1.172,7.746,1.439c-1.52-2.688-3.329-5.188-5.398-7.451
		c-7.442-1.89-14.275-5.856-19.511-11.602V108.6c-2.085-0.555-4.233-0.95-6.435-1.165v5.705
		C78.101,114.233,86.505,119.216,92.125,126.464z"/>
	<path fill="#EDEDF7" d="M82.138,135.939c-1.068-2.251-1.836-4.678-2.214-7.237c-1.56,0.24-3.114,0.49-4.623,0.833
		C78.023,131.146,80.37,133.326,82.138,135.939z"/>
	<path fill="#EDEDF7" d="M46.843,159.487c-0.229,1.121-0.423,2.254-0.557,3.405h3.354C48.595,161.859,47.657,160.718,46.843,159.487
		z"/>
	<path fill="#EDEDF7" d="M63.933,120.921v5.684c0.204-0.006,0.403-0.03,0.609-0.03c0.112,0,0.22,0.015,0.332,0.017
		c1.212-0.576,2.489-1.129,3.653-1.565v-3.823c-1.301-0.193-2.631-0.297-3.985-0.297C64.338,120.905,64.136,120.916,63.933,120.921z
		"/>
	<path fill="#EDEDF7" d="M43.316,147.799c0-9.093,5.76-16.847,13.813-19.862v-5.984c-11.235,3.227-19.482,13.588-19.482,25.847
		c0,4.116,0.933,8.019,2.593,11.51c0.592-3.691,1.646-7.26,3.12-10.642C43.349,148.377,43.316,148.092,43.316,147.799z"/>
	<path fill="#EDEDF7" d="M83.776,138.88c1.265,2.716,1.991,5.73,1.991,8.919c0,5.901-2.425,11.243-6.324,15.094h7.347
		c2.931-4.307,4.646-9.503,4.646-15.094c0-0.446-0.012-0.89-0.034-1.331C88.351,144.517,85.751,141.928,83.776,138.88z"/>
	<path fill="#EDEDF7" d="M64.542,174.694c5.809,0,11.188-1.857,15.589-5H48.953C53.354,172.837,58.733,174.694,64.542,174.694z"/>
	<path fill="#EDEDF7" d="M64.874,126.591c3.803,0.06,7.357,1.129,10.427,2.944c1.509-0.343,3.063-0.593,4.623-0.833
		c0.378,2.56,1.146,4.986,2.214,7.237c0.627,0.927,1.162,1.918,1.639,2.94c1.975,3.048,4.574,5.637,7.626,7.588
		c-0.631-12.875-10.357-23.398-22.875-25.266v3.823C67.363,125.462,66.086,126.015,64.874,126.591z"/>
	<path fill="#EDEDF7" d="M64.542,169.025c-5.804,0-11.065-2.346-14.901-6.133h-3.354c0.134-1.151,0.327-2.284,0.557-3.405
		c-2.072-3.127-3.32-6.834-3.482-10.82c-1.475,3.382-2.528,6.95-3.12,10.642c1.979,4.16,4.996,7.731,8.713,10.386h31.178
		c2.601-1.856,4.86-4.158,6.659-6.802h-7.347C75.607,166.68,70.346,169.025,64.542,169.025z"/>
	<path fill="#EDEDF7" d="M63.933,126.604v-5.684c-2.354,0.053-4.634,0.408-6.803,1.031v5.984
		C59.259,127.139,61.545,126.673,63.933,126.604z"/>
	<path fill="#EDEDF7" d="M69.668,139.388l-7.833,7.835l-2.419-2.42c-1.653-1.653-4.339-1.653-5.993,0
		c-1.656,1.655-1.656,4.339,0,5.993l5.416,5.415c0.793,0.797,1.872,1.243,2.996,1.243s2.201-0.446,2.997-1.243l10.83-10.829
		c1.655-1.655,1.655-4.339-0.001-5.994C74.008,137.733,71.324,137.731,69.668,139.388z"/>
</g>
</svg>
