<?xml version="1.0" encoding="utf-8"?>
<!-- Generator: Adobe Illustrator 16.0.0, SVG Export Plug-In . SVG Version: 6.00 Build 0)  -->
<!DOCTYPE svg PUBLIC "-//W3C//DTD SVG 1.1//EN" "http://www.w3.org/Graphics/SVG/1.1/DTD/svg11.dtd">
<svg version="1.1" id="Layer_1" xmlns="http://www.w3.org/2000/svg" xmlns:xlink="http://www.w3.org/1999/xlink" x="0px" y="0px"
	 width="192px" height="210.461px" viewBox="0 0 192 210.461" enable-background="new 0 0 192 210.461" xml:space="preserve">
<g transform="translate(0,-1004.3622)">
	<g>
		<g>
			<g>
				<g>
					<g>
						<g transform="translate(-9.4480086e-4,-1.2002565e-6)">
							<g>
								<path fill="#EDEDF7" d="M28.657,1032.971c-0.071,0.004-0.143,0.011-0.213,0.02c-1.188,0.228-2.041,1.276-2.019,2.485
									v134.181c0,1.373,1.111,2.485,2.485,2.485h134.18c1.373,0,2.485-1.112,2.486-2.485v-72.681v-22.674v-38.826
									c-0.001-1.372-1.113-2.485-2.486-2.485H28.911C28.826,1032.98,28.742,1032.973,28.657,1032.971z M31.394,1037.96h129.212
									v14.909H31.394V1037.96z M38.596,1042.91c-0.07,0.004-0.143,0.01-0.213,0.02c-1.188,0.227-2.041,1.275-2.02,2.485
									c0,1.372,1.113,2.485,2.485,2.485l0,0c1.372,0,2.485-1.113,2.485-2.485l0,0c0-1.372-1.113-2.485-2.485-2.485l0,0
									C38.765,1042.919,38.68,1042.913,38.596,1042.91z M48.537,1042.91c-0.072,0.004-0.144,0.01-0.214,0.02
									c-1.188,0.227-2.041,1.275-2.02,2.485c0,1.372,1.113,2.485,2.484,2.485l0,0c1.373,0,2.486-1.113,2.486-2.485l0,0
									c0-1.372-1.113-2.485-2.485-2.485c0,0,0,0-0.001,0C48.705,1042.919,48.621,1042.913,48.537,1042.91z M58.475,1042.91
									c-0.071,0.004-0.142,0.01-0.213,0.02c-1.188,0.227-2.041,1.275-2.02,2.485c0,1.372,1.112,2.484,2.485,2.485
									c1.372-0.001,2.484-1.113,2.484-2.485s-1.112-2.485-2.484-2.485C58.645,1042.919,58.559,1042.913,58.475,1042.91z
									 M31.394,1057.839h129.212v16.463v22.674v70.196H31.394V1057.839z M40.839,1065.265c-0.095,0.004-0.188,0.014-0.281,0.028
									c-1.065,0.349-1.765,1.367-1.709,2.484v34.789c0,1.372,1.112,2.484,2.485,2.484h34.787c1.372,0,2.484-1.112,2.484-2.484
									v-34.789c0-1.371-1.112-2.484-2.484-2.484H41.334C41.17,1065.267,41.004,1065.258,40.839,1065.265z M86.06,1065.293v4.97
									h24.85v-4.97H86.06z M43.818,1070.263h29.818v29.818H43.818V1070.263z M86.06,1075.232v4.97h64.606v-4.97H86.06z
									 M86.06,1085.172v4.971h54.667v-4.971H86.06z M86.06,1095.112v4.969h54.667v-4.969H86.06z M86.06,1105.051v4.971h54.667
									v-4.971H86.06z M41.334,1110.021v4.969h34.787v-4.969H41.334z M86.06,1114.99v4.97h19.88v-4.97H86.06z M41.334,1119.96v4.97
									h19.878v-4.97H41.334z M70.375,1139.84c-3.648,0-6.678,2.867-6.678,6.521v4.193c0,3.654,3.029,6.678,6.678,6.678h12.735
									c3.647,0,6.678-3.023,6.678-6.678v-4.193c0-3.654-3.03-6.521-6.678-6.521H70.375z M105.163,1139.84
									c-3.647,0-6.678,2.867-6.678,6.521v4.193c0,3.654,3.03,6.678,6.678,6.678h12.735c3.647,0,6.678-3.023,6.678-6.678v-4.193
									c0-3.654-3.03-6.521-6.678-6.521H105.163z M70.375,1144.808h12.735c1.032,0,1.708,0.619,1.708,1.553v4.193
									c0,0.935-0.676,1.709-1.708,1.709H70.375c-1.032,0-1.708-0.774-1.708-1.709v-4.193
									C68.667,1145.428,69.343,1144.808,70.375,1144.808z M105.163,1144.808h12.735c1.032,0,1.708,0.619,1.708,1.553v4.193
									c0,0.935-0.676,1.709-1.708,1.709h-12.735c-1.032,0-1.708-0.774-1.708-1.709v-4.193
									C103.455,1145.428,104.13,1144.808,105.163,1144.808z"/>
							</g>
						</g>
					</g>
				</g>
			</g>
		</g>
	</g>
</g>
</svg>
