<?xml version="1.0" encoding="utf-8"?>
<!-- Generator: Adobe Illustrator 16.0.0, SVG Export Plug-In . SVG Version: 6.00 Build 0)  -->
<!DOCTYPE svg PUBLIC "-//W3C//DTD SVG 1.1//EN" "http://www.w3.org/Graphics/SVG/1.1/DTD/svg11.dtd">
<svg version="1.1" id="Layer_1" xmlns="http://www.w3.org/2000/svg" xmlns:xlink="http://www.w3.org/1999/xlink" x="0px" y="0px"
	 width="192px" height="210.461px" viewBox="0 0 192 210.461" enable-background="new 0 0 192 210.461" xml:space="preserve">
<path fill="#EDEDF7" d="M47.837,149.453h33.911c2.064,0,3.687,1.622,3.687,3.686v0.737h18.725v-0.59
	c0-2.063,1.621-3.686,3.686-3.686h34.059c2.063,0,3.686,1.622,3.686,3.686c0,2.064-1.77,3.539-3.686,3.539H110.94
	c-1.18,2.506-3.686,4.275-6.781,4.275H85.581c-2.948,0-5.602-1.77-6.781-4.275H47.837c-2.063,0-3.686-1.622-3.686-3.687
	C44.151,151.075,45.921,149.453,47.837,149.453z M167.999,153.139c0-2.063-1.622-3.686-3.686-3.686h-6.93V82.958
	c0-2.063-1.621-3.686-3.686-3.686c-2.065,0-3.687,1.622-3.687,3.686v70.181c0,2.064,1.621,3.687,3.687,3.687h6.93v3.243
	c0,3.686-3.097,6.782-6.782,6.782H35.896c-3.686,0-6.783-3.097-6.783-6.782v-3.243h6.931c2.063,0,3.686-1.622,3.686-3.687V82.958
	c0-2.063-1.622-3.686-3.686-3.686c-2.064,0-3.687,1.622-3.687,3.686v66.495h-6.93c-2.064,0-3.686,1.622-3.686,3.686v6.93
	c0,7.813,6.34,14.154,14.154,14.154h117.95c7.813,0,14.153-6.341,14.153-14.154V153.139z M61.106,130.285v-12.089h-2.211
	c-6.34,0-11.5-5.16-11.5-11.501V50.669c0-6.339,5.16-11.499,11.5-11.499h72.097c6.339,0,11.5,5.16,11.5,11.499v56.026
	c0,6.341-5.161,11.501-11.5,11.501H83.37l-13.27,15.333c-1.032,1.18-2.359,1.77-3.834,1.77
	C63.466,135.299,61.106,133.087,61.106,130.285z M64.793,110.824c2.063,0,3.687,1.622,3.687,3.687v9.583l10.32-11.942
	c0.736-0.737,1.77-1.327,2.801-1.327h49.244c2.211,0,4.129-1.916,4.129-4.129V50.669c0-2.211-1.918-4.128-4.129-4.128H58.896
	c-2.211,0-4.128,1.917-4.128,4.128v56.026c0,2.213,1.917,4.129,4.128,4.129H64.793z M68.479,82.222c-1.476-1.475-1.476-3.834,0-5.16
	l9.141-8.994c0.737-0.737,1.622-1.032,2.654-1.032l0,0c1.031,0,1.916,0.443,2.653,1.032l6.045,6.192l18.135-18.135
	c1.476-1.475,3.833-1.475,5.161,0l8.993,9.141c0.737,0.738,1.032,1.623,1.032,2.655c0,1.031-0.442,1.916-1.032,2.653l-29.931,29.487
	c-0.737,0.737-1.621,1.031-2.653,1.031l0,0c-1.032,0-1.917-0.441-2.654-1.031L68.479,82.222z M76.293,79.567l12.532,12.531
	l24.621-24.473l-3.832-3.688L91.479,81.927c-1.474,1.474-3.833,1.474-5.16,0l-6.192-6.192L76.293,79.567z"/>
</svg>
