<?xml version="1.0" encoding="utf-8"?>
<!-- Generator: Adobe Illustrator 16.0.0, SVG Export Plug-In . SVG Version: 6.00 Build 0)  -->
<!DOCTYPE svg PUBLIC "-//W3C//DTD SVG 1.1//EN" "http://www.w3.org/Graphics/SVG/1.1/DTD/svg11.dtd">
<svg version="1.1" id="Layer_1" xmlns="http://www.w3.org/2000/svg" xmlns:xlink="http://www.w3.org/1999/xlink" x="0px" y="0px"
	 width="192px" height="210.461px" viewBox="0 0 192 210.461" enable-background="new 0 0 192 210.461" xml:space="preserve">
<g>
	<path fill="#EDEDF7" d="M52.695,25.188c-1.494,0.023-2.686,1.253-2.662,2.746l0,0v8.07H25.666c-1.493,0-2.703,1.211-2.703,2.703
		v24.336h5.407V41.412h21.663v5.903c-3.131,1.128-5.408,4.117-5.408,7.615c0,4.448,3.664,8.112,8.111,8.112
		c4.449,0,8.112-3.664,8.112-8.112c0-3.498-2.276-6.487-5.407-7.615v-5.903h81.117v5.903c-3.131,1.128-5.408,4.117-5.408,7.615
		c0,4.448,3.664,8.112,8.111,8.112c4.449,0,8.113-3.664,8.113-8.112c0-3.498-2.277-6.487-5.408-7.615v-5.903h21.662v21.631h5.408
		V38.707c0-1.492-1.211-2.703-2.703-2.703h-24.367v-8.07c0.023-1.492-1.169-2.723-2.662-2.746c-0.027,0-0.057,0-0.084,0
		c-1.494,0.023-2.686,1.253-2.662,2.746l0,0v8.07H55.441v-8.07c0.023-1.492-1.169-2.723-2.662-2.746
		C52.752,25.188,52.723,25.188,52.695,25.188z M52.441,52.279c0.193,0.021,0.388,0.021,0.58,0c1.377,0.146,2.42,1.229,2.42,2.651
		c0,1.526-1.18,2.704-2.705,2.704s-2.703-1.178-2.703-2.704C50.033,53.512,51.07,52.428,52.441,52.279z M138.967,52.279
		c0.193,0.021,0.388,0.021,0.58,0c1.377,0.146,2.42,1.229,2.42,2.651c0,1.526-1.18,2.704-2.705,2.704s-2.703-1.178-2.703-2.704
		C136.559,53.512,137.596,52.428,138.967,52.279z M25.697,68.45c-1.492,0.001-2.703,1.211-2.703,2.704v97.341
		c0,1.493,1.211,2.704,2.703,2.704h140.604c1.494,0,2.705-1.211,2.705-2.704V71.154c0-1.493-1.211-2.703-2.705-2.704H25.697z
		 M28.402,73.858h135.195v91.933H28.402V73.858z M79.775,79.266c-1.492,0.001-2.703,1.211-2.703,2.705v10.815
		c0,1.493,1.211,2.704,2.703,2.704h10.816c1.493,0,2.703-1.211,2.704-2.704V81.971c-0.001-1.494-1.211-2.704-2.704-2.705H79.775z
		 M101.407,79.266c-1.493,0.001-2.704,1.211-2.704,2.705v10.815c0,1.493,1.211,2.704,2.704,2.704h10.815
		c1.494,0,2.705-1.211,2.705-2.704V81.971c0-1.494-1.211-2.704-2.705-2.705H101.407z M123.039,79.266
		c-1.494,0.001-2.703,1.211-2.704,2.705v10.815c0.001,1.493,1.21,2.704,2.704,2.704h10.815c1.493,0,2.704-1.211,2.704-2.704V81.971
		c0-1.494-1.211-2.704-2.704-2.705H123.039z M144.67,79.266c-1.492,0.001-2.703,1.211-2.703,2.705v10.815
		c0,1.493,1.211,2.704,2.703,2.704h10.816c1.492,0,2.703-1.211,2.703-2.704V81.971c0-1.494-1.211-2.704-2.703-2.705H144.67z
		 M68.887,82.963c-0.7,0.018-1.367,0.305-1.859,0.803l-5.27,5.218l-1.69-1.669c-1.042-1.07-2.753-1.095-3.824-0.054
		c-1.071,1.042-1.095,2.753-0.054,3.824c0.024,0.025,0.05,0.05,0.075,0.074l3.591,3.549c1.054,1.042,2.75,1.042,3.803,0l7.172-7.098
		c1.073-1.038,1.102-2.75,0.064-3.823C70.369,83.244,69.642,82.945,68.887,82.963z M39.217,84.674v5.408h5.408v-5.408H39.217z
		 M82.48,84.674h5.408v5.408H82.48V84.674z M104.111,84.674h5.408v5.408h-5.408V84.674z M125.742,84.674h5.408v5.408h-5.408V84.674z
		 M147.375,84.674h5.407v5.408h-5.407V84.674z M36.514,100.897c-1.494,0.001-2.704,1.211-2.704,2.704v10.815
		c0,1.493,1.21,2.704,2.704,2.704h10.815c1.493,0,2.704-1.211,2.704-2.704v-10.815c0-1.493-1.211-2.703-2.704-2.704H36.514z
		 M58.145,100.897c-1.492,0.001-2.703,1.211-2.703,2.704v10.815c0,1.493,1.211,2.704,2.703,2.704h10.816
		c1.492,0,2.703-1.211,2.703-2.704v-10.815c0-1.493-1.211-2.703-2.703-2.704H58.145z M79.775,100.897
		c-1.492,0.001-2.703,1.211-2.703,2.704v10.815c0,1.493,1.211,2.704,2.703,2.704h10.816c1.493,0,2.703-1.211,2.704-2.704v-10.815
		c-0.001-1.493-1.211-2.703-2.704-2.704H79.775z M101.407,100.897c-1.493,0.001-2.704,1.211-2.704,2.704v10.815
		c0,1.493,1.211,2.704,2.704,2.704h10.815c1.494,0,2.705-1.211,2.705-2.704v-10.815c0-1.493-1.211-2.703-2.705-2.704H101.407z
		 M144.67,100.897c-1.492,0.001-2.703,1.211-2.703,2.704v10.815c0,1.493,1.211,2.704,2.703,2.704h10.816
		c1.492,0,2.703-1.211,2.703-2.704v-10.815c0-1.493-1.211-2.703-2.703-2.704H144.67z M133.791,104.594
		c-0.7,0.018-1.367,0.305-1.859,0.803l-5.28,5.219l-1.69-1.67c-1.041-1.07-2.753-1.094-3.824-0.053
		c-1.07,1.041-1.094,2.753-0.053,3.823c0.023,0.026,0.049,0.051,0.074,0.075l3.592,3.549c1.054,1.041,2.748,1.041,3.803,0
		l7.182-7.098c1.074-1.039,1.103-2.75,0.064-3.824C135.273,104.875,134.546,104.576,133.791,104.594z M39.217,106.305h5.408v5.408
		h-5.408V106.305z M60.849,106.305h5.408v5.408h-5.408V106.305z M82.48,106.305h5.408v5.408H82.48V106.305z M104.111,106.305h5.408
		v5.408h-5.408V106.305z M147.375,106.305h5.407v5.408h-5.407V106.305z M36.514,122.529c-1.494,0-2.704,1.211-2.704,2.703v10.816
		c0,1.492,1.21,2.703,2.704,2.703h10.815c1.493,0,2.704-1.211,2.704-2.703v-10.816c0-1.492-1.211-2.703-2.704-2.703H36.514z
		 M58.145,122.529c-1.492,0-2.703,1.211-2.703,2.703v10.816c0,1.492,1.211,2.703,2.703,2.703h10.816
		c1.492,0,2.703-1.211,2.703-2.703v-10.816c0-1.492-1.211-2.703-2.703-2.703H58.145z M101.407,122.529
		c-1.493,0-2.704,1.211-2.704,2.703v10.816c0,1.492,1.211,2.703,2.704,2.703h10.815c1.494,0,2.705-1.211,2.705-2.703v-10.816
		c0-1.492-1.211-2.703-2.705-2.703H101.407z M123.039,122.529c-1.494,0-2.703,1.211-2.704,2.703v10.816
		c0.001,1.492,1.21,2.703,2.704,2.703h10.815c1.493,0,2.704-1.211,2.704-2.703v-10.816c0-1.492-1.211-2.703-2.704-2.703H123.039z
		 M144.67,122.529c-1.492,0-2.703,1.211-2.703,2.703v10.816c0,1.492,1.211,2.703,2.703,2.703h10.816
		c1.492,0,2.703-1.211,2.703-2.703v-10.816c0-1.492-1.211-2.703-2.703-2.703H144.67z M90.528,126.215
		c-0.704,0.014-1.374,0.303-1.87,0.803l-5.27,5.229l-1.689-1.669c-1.041-1.071-2.754-1.095-3.824-0.054
		c-1.071,1.041-1.096,2.753-0.055,3.824c0.025,0.025,0.051,0.051,0.076,0.074l3.59,3.549c1.055,1.042,2.75,1.042,3.803,0
		l7.172-7.108c1.074-1.038,1.103-2.75,0.064-3.823C92.002,126.499,91.279,126.2,90.528,126.215z M39.217,127.938h5.408v5.407h-5.408
		V127.938z M60.849,127.938h5.408v5.407h-5.408V127.938z M104.111,127.938h5.408v5.407h-5.408V127.938z M125.742,127.938h5.408
		v5.407h-5.408V127.938z M147.375,127.938h5.407v5.407h-5.407V127.938z M36.514,144.16c-1.494,0-2.704,1.211-2.704,2.704v10.815
		c0,1.493,1.21,2.704,2.704,2.704h10.815c1.493,0,2.704-1.211,2.704-2.704v-10.815c0-1.493-1.211-2.704-2.704-2.704H36.514z
		 M58.145,144.16c-1.492,0-2.703,1.211-2.703,2.704v10.815c0,1.493,1.211,2.704,2.703,2.704h10.816c1.492,0,2.703-1.211,2.703-2.704
		v-10.815c0-1.493-1.211-2.704-2.703-2.704H58.145z M39.217,149.568h5.408v5.408h-5.408V149.568z M60.849,149.568h5.408v5.408
		h-5.408V149.568z M82.48,149.568v5.408h5.408v-5.408H82.48z M104.111,149.568v5.408h5.408v-5.408H104.111z M125.742,149.568v5.408
		h5.408v-5.408H125.742z M147.375,149.568v5.408h5.407v-5.408H147.375z"/>
</g>
</svg>
